<svg xmlns="http://www.w3.org/2000/svg" viewBox="0 0 192.756 192.756"><g fill-rule="evenodd" clip-rule="evenodd"><path d="M113.467 132.102c-1.568-.206-7.543-1.177-9.121-1.647-1.963-1.963-1.412-5.185-1.254-7.734 2.42-9.474 2.393-15.508 1.412-23.477-.549-4.712 1.414-10.847 1.805-13.075.393-2.222.787-11.186-.273-16.684-.355-1.258-.523-2.265-.59-3.965-.066-1.702-.158-3.533 1.061-4.791 4.121-2.314 4.449-6.502 5.379-10.559-.197-5.928 3.613-10.914 1.688-16.881-.668-1.688-2.066-2.526-3.965-3.376-1.9-.852-7.631-2.199-9.002-6.046-.824-5.536 2.719-11.917.246-16.292-1.277-2.257-5.456-2.671-8.282-1.689-3.887 2.16-3.262 9.149-2.672 11.111.59 1.963 1.021 4.12 1.338 6.242.037 2.001-1.651 3.181-3.3 3.847-2.983 1.689-6.123 3.023-9.027 4.791-2.122 1.492-1.495 4.71-1.337 7.064 2.041 5.655.826 12.683 3.573 18.021 2.395 1.532 4.239 4.202 4.239 7.146-1.021 9.265-.431 18.923 2.082 27.441.669 4.242-.04 8.835-.471 13.075-.198 5.889 1.61 10.952 2.75 16.292.549 2.867.704 6.714-.867 9.263-4.671 1.65-10.246 1.099-14.524 3.771-1.531 1.687-.118 4.317-.825 6.4-.038 1.452-1.766 1.489-2.474 2.432-.981 1.572.119 3.298 1.061 4.516.667 4.317.352 12.472.352 13.584 0 1.11.277 2.629-.823 3.299-3.143 1.1-6.478 2.081-8.873 4.634-.668 1.372-.392 3.296.471 4.515.433 1.138-.704 1.884-.823 2.904-.316 1.686-.431 3.769.823 4.985 2.276 1.217 4.594 2.316 7.067 3.021 15.231 4.083 29.408 3.42 41.404 1.926 6.768-.846 15.756-2.9 18.701-5.771.705-1.806 0-4.006-.826-5.652-.391-1.729 1.061-3.3.551-5.184-.551-1.374-1.627-1.963-2.904-2.748-1.277-.787-4.633-1.415-6.4-3.103l-.311-12.914c.035-2.278-.197-4.674.941-6.479.744-2.593-2.594-2.234-3.457-3.964-.863-2.199 1.139-3.456.746-5.577-.203-1.145-1.479-2.17-5.289-2.672z"/><path d="M96.495 18.33c.118.393-.313.196-.471.353l-.55-.076c.276-.277.629-.317 1.021-.277zM92.57 46.674c-.198.041-.393.354-.59.119-.198-.509 0-1.061.198-1.532.392.276.392.864.392 1.413z" fill="#c4a76a"/><path d="M128.254 170.497v.079h-.273l.078-.195c.078.075.117.116.195.116z" fill="#c9b04c"/><path d="M113.387 131.998c-1.564-.207-7.541-1.179-9.119-1.647-1.963-1.963-1.412-5.186-1.254-7.734 2.42-9.474 2.393-15.508 1.412-23.479-.549-4.712 1.412-10.847 1.805-13.072.393-2.224.787-11.188-.273-16.685-.355-1.258-.523-2.265-.59-3.966-.064-1.702-.156-3.533 1.062-4.791 4.119-2.314 4.449-6.503 5.375-10.559-.195-5.928 3.615-10.914 1.691-16.881-.668-1.689-2.068-2.526-3.969-3.375-1.896-.853-7.627-2.2-9-6.047-.824-5.535 2.719-11.917.246-16.292-1.277-2.257-5.457-2.67-8.283-1.688-3.886 2.16-3.26 9.148-2.67 11.111.59 1.962 1.021 4.12 1.336 6.242.038 2.001-1.65 3.181-3.299 3.847-2.983 1.689-6.123 3.023-9.027 4.791-2.122 1.492-1.494 4.709-1.338 7.064 2.042 5.655.827 12.683 3.574 18.021 2.395 1.532 4.239 4.201 4.239 7.146-1.021 9.265-.431 18.923 2.082 27.44.668 4.244-.041 8.836-.471 13.076-.198 5.888 1.61 10.952 2.75 16.292.55 2.868.705 6.715-.866 9.264-4.671 1.65-10.245 1.1-14.524 3.77-1.532 1.687-.119 4.318-.826 6.399-.037 1.454-1.765 1.492-2.473 2.434-.98 1.57.118 3.297 1.06 4.515.669 4.318.353 12.472.353 13.586 0 1.109.275 2.627-.824 3.297-3.142 1.1-6.478 2.08-8.872 4.634-.669 1.372-.393 3.297.471 4.517.433 1.135-.705 1.883-.823 2.903-.317 1.686-.432 3.769.823 4.986 2.276 1.214 4.594 2.313 7.067 3.019 15.232 4.083 29.408 3.42 41.404 1.927 6.768-.845 15.756-2.899 18.701-5.772.705-1.805 0-4.004-.826-5.652-.393-1.729 1.062-3.298.551-5.182-.551-1.375-1.629-1.963-2.904-2.747-1.275-.788-4.633-1.418-6.398-3.104l-.314-12.916c.037-2.276-.197-4.674.941-6.479.746-2.593-2.59-2.235-3.453-3.965-.865-2.197 1.137-3.454.742-5.576-.199-1.145-1.477-2.17-5.289-2.672z"/><path d="M96.416 18.227c.12.392-.313.195-.471.352l-.549-.076c.276-.276.628-.317 1.02-.276zM92.491 46.57c-.197.041-.392.354-.589.119-.198-.51 0-1.061.197-1.532.392.276.392.864.392 1.413z" fill="#c4a76a"/><path d="M128.176 170.394v.079h-.271l.074-.195c.08.075.119.116.197.116z" fill="#c9b04c"/></g></svg>